<svg width="200" height="201" viewBox="0 0 200 201" fill="none" xmlns="http://www.w3.org/2000/svg">
<circle cx="94" cy="94" r="70" fill="#14389D"/>
<circle cx="12" cy="12" r="12" fill="#14389D"/>
<circle cx="129" cy="189" r="12" fill="#14389D"/>
<circle cx="186" cy="55" r="7" fill="#14389D"/>
<circle cx="24" cy="163" r="7" fill="#14389D"/>
<circle cx="177" cy="109" r="2" fill="#14389D"/>
<circle cx="113.5" cy="8.5" r="3.5" fill="#14389D"/>
<circle cx="189.5" cy="155.5" r="3.5" fill="#14389D"/>
<circle cx="11.5" cy="90.5" r="3.5" fill="#14389D"/>
<path d="M86.3011 85.4667C87.2078 84.6747 88.2851 84.064 89.4745 83.704L90.1331 83.5307L90.5598 83.4507L91.0291 83.384L91.5091 83.344L91.9998 83.3307H112C114.213 83.3305 116.343 84.1771 117.952 85.6968C119.561 87.2166 120.527 89.2943 120.653 91.504L120.666 91.9973V111.997C120.667 114.211 119.82 116.341 118.299 117.95C116.779 119.559 114.701 120.525 112.49 120.651L112 120.664H91.9998C89.7861 120.664 87.6562 119.817 86.0472 118.297C84.4381 116.777 83.4718 114.698 83.3465 112.488L83.3331 112V92L83.3411 91.6027L83.3785 91.096L83.4478 90.5867L83.5438 90.0907L83.7011 89.496L83.9145 88.8667L84.1465 88.328L84.3651 87.896L84.6158 87.4613L85.0051 86.8827L85.2558 86.5547L85.6158 86.1387L85.9038 85.84L86.3011 85.4667ZM102 91.3333C101.516 91.3333 101.05 91.5084 100.685 91.826C100.321 92.1437 100.084 92.5825 100.018 93.0613L99.9998 93.3333V99.9973H93.3331C92.8498 99.9973 92.3829 100.172 92.0186 100.49C91.6544 100.808 91.4175 101.247 91.3518 101.725L91.3331 101.997C91.3331 103.011 92.0851 103.845 93.0611 103.979L93.3331 103.997H99.9998V110.667C99.9998 111.68 100.752 112.517 101.728 112.648L102 112.667C102.483 112.667 102.95 112.492 103.314 112.174C103.679 111.856 103.915 111.417 103.981 110.939L104 110.667V103.997H110.666C111.15 103.997 111.617 103.822 111.982 103.504C112.346 103.185 112.583 102.746 112.648 102.267L112.666 102C112.666 101.517 112.491 101.05 112.174 100.686C111.856 100.321 111.417 100.084 110.938 100.019L110.666 100H104V93.3333C104 92.85 103.825 92.3831 103.507 92.0188C103.189 91.6546 102.751 91.4177 102.272 91.352L102 91.3333ZM103.552 73.288L103.69 73.76L105.541 80.6613H91.9998C90.5113 80.6613 89.0373 80.9546 87.6621 81.5243C86.2869 82.094 85.0374 82.929 83.985 83.9817C82.9325 85.0344 82.0978 86.2841 81.5284 87.6594C80.959 89.0348 80.6661 90.5088 80.6665 91.9973V109.155C78.9324 109.052 77.2693 108.431 75.8927 107.371C74.5161 106.312 73.4897 104.863 72.9465 103.213L72.8078 102.744L67.6318 83.424C67.0585 81.2863 67.3247 79.0103 68.3759 77.0627C69.427 75.115 71.1835 73.6433 73.2851 72.9493L73.7598 72.8107L93.0771 67.6347C95.2148 67.0613 97.4908 67.3276 99.4385 68.3787C101.386 69.4299 102.858 71.1864 103.552 73.288Z" fill="white"/>
</svg>
