<svg width="24" height="24" viewBox="0 0 24 24" fill="none" xmlns="http://www.w3.org/2000/svg">
<path d="M6.0001 3.6C4.67461 3.6 3.6001 4.67451 3.6001 6V8.4C3.6001 9.72548 4.67461 10.8 6.0001 10.8H8.4001C9.72558 10.8 10.8001 9.72548 10.8001 8.4V6C10.8001 4.67452 9.72558 3.6 8.4001 3.6H6.0001Z" fill="white"/>
<path d="M6.0001 13.2C4.67461 13.2 3.6001 14.2745 3.6001 15.6V18C3.6001 19.3255 4.67461 20.4 6.0001 20.4H8.4001C9.72558 20.4 10.8001 19.3255 10.8001 18V15.6C10.8001 14.2745 9.72558 13.2 8.4001 13.2H6.0001Z" fill="white"/>
<path d="M13.2001 6C13.2001 4.67451 14.2746 3.6 15.6001 3.6H18.0001C19.3256 3.6 20.4001 4.67452 20.4001 6V8.4C20.4001 9.72548 19.3256 10.8 18.0001 10.8H15.6001C14.2746 10.8 13.2001 9.72548 13.2001 8.4V6Z" fill="white"/>
<path d="M13.2001 15.6C13.2001 14.2745 14.2746 13.2 15.6001 13.2H18.0001C19.3256 13.2 20.4001 14.2745 20.4001 15.6V18C20.4001 19.3255 19.3256 20.4 18.0001 20.4H15.6001C14.2746 20.4 13.2001 19.3255 13.2001 18V15.6Z" fill="white"/>
</svg>
