<svg width="24" height="25" viewBox="0 0 24 25" fill="none" xmlns="http://www.w3.org/2000/svg">
<path d="M9.00006 16.7L5.50006 13.2C5.40853 13.1074 5.29953 13.0338 5.17937 12.9836C5.05921 12.9334 4.93028 12.9076 4.80006 12.9076C4.66983 12.9076 4.5409 12.9334 4.42074 12.9836C4.30058 13.0338 4.19158 13.1074 4.10006 13.2C4.00742 13.2915 3.93387 13.4005 3.88367 13.5207C3.83347 13.6409 3.80762 13.7698 3.80762 13.9C3.80762 14.0302 3.83347 14.1592 3.88367 14.2793C3.93387 14.3995 4.00742 14.5085 4.10006 14.6L8.29006 18.79C8.68006 19.18 9.31006 19.18 9.70006 18.79L20.3001 8.20001C20.3927 8.10848 20.4662 7.99948 20.5164 7.87932C20.5666 7.75916 20.5925 7.63023 20.5925 7.50001C20.5925 7.36978 20.5666 7.24085 20.5164 7.12069C20.4662 7.00053 20.3927 6.89153 20.3001 6.80001C20.2085 6.70737 20.0995 6.63382 19.9794 6.58362C19.8592 6.53342 19.7303 6.50757 19.6001 6.50757C19.4698 6.50757 19.3409 6.53342 19.2207 6.58362C19.1006 6.63382 18.9916 6.70737 18.9001 6.80001L9.00006 16.7Z" fill="#088752"/>
</svg>
