<svg width="25" height="24" viewBox="0 0 25 24" fill="none" xmlns="http://www.w3.org/2000/svg">
<path d="M9.45123 16.2L5.95123 12.7C5.85971 12.6074 5.7507 12.5338 5.63054 12.4836C5.51038 12.4334 5.38145 12.4076 5.25123 12.4076C5.121 12.4076 4.99207 12.4334 4.87191 12.4836C4.75175 12.5338 4.64275 12.6074 4.55123 12.7C4.45859 12.7915 4.38504 12.9005 4.33484 13.0207C4.28464 13.1408 4.25879 13.2698 4.25879 13.4C4.25879 13.5302 4.28464 13.6592 4.33484 13.7793C4.38504 13.8995 4.45859 14.0085 4.55123 14.1L8.74123 18.29C9.13123 18.68 9.76123 18.68 10.1512 18.29L20.7512 7.7C20.8439 7.60848 20.9174 7.49948 20.9676 7.37932C21.0178 7.25915 21.0437 7.13023 21.0437 7C21.0437 6.86977 21.0178 6.74085 20.9676 6.62068C20.9174 6.50052 20.8439 6.39152 20.7512 6.3C20.6597 6.20736 20.5507 6.13381 20.4305 6.08361C20.3104 6.03341 20.1815 6.00756 20.0512 6.00756C19.921 6.00756 19.7921 6.03341 19.6719 6.08361C19.5518 6.13381 19.4428 6.20736 19.3512 6.3L9.45123 16.2Z" fill="#9F9F9F"/>
</svg>
