<svg width="50" height="50" viewBox="0 0 50 50" fill="none" xmlns="http://www.w3.org/2000/svg">
<rect width="50" height="50" rx="12" fill="url(#paint0_linear_74_877)"/>
<path d="M21 15C15.477 15 11 19.477 11 25C11 30.523 15.477 35 21 35H29C34.523 35 39 30.523 39 25C39 19.477 34.523 15 29 15H21ZM31 28C31 28.5304 30.7893 29.0391 30.4142 29.4142C30.0391 29.7893 29.5304 30 29 30C28.4696 30 27.9609 29.7893 27.5858 29.4142C27.2107 29.0391 27 28.5304 27 28C27 27.4696 27.2107 26.9609 27.5858 26.5858C27.9609 26.2107 28.4696 26 29 26C29.5304 26 30.0391 26.2107 30.4142 26.5858C30.7893 26.9609 31 27.4696 31 28ZM31 24C30.4696 24 29.9609 23.7893 29.5858 23.4142C29.2107 23.0391 29 22.5304 29 22C29 21.4696 29.2107 20.9609 29.5858 20.5858C29.9609 20.2107 30.4696 20 31 20C31.5304 20 32.0391 20.2107 32.4142 20.5858C32.7893 20.9609 33 21.4696 33 22C33 22.5304 32.7893 23.0391 32.4142 23.4142C32.0391 23.7893 31.5304 24 31 24ZM19 21C19.2652 21 19.5196 21.1054 19.7071 21.2929C19.8946 21.4804 20 21.7348 20 22V24H22C22.2652 24 22.5196 24.1054 22.7071 24.2929C22.8946 24.4804 23 24.7348 23 25C23 25.2652 22.8946 25.5196 22.7071 25.7071C22.5196 25.8946 22.2652 26 22 26H20V28C20 28.2652 19.8946 28.5196 19.7071 28.7071C19.5196 28.8946 19.2652 29 19 29C18.7348 29 18.4804 28.8946 18.2929 28.7071C18.1054 28.5196 18 28.2652 18 28V26H16C15.7348 26 15.4804 25.8946 15.2929 25.7071C15.1054 25.5196 15 25.2652 15 25C15 24.7348 15.1054 24.4804 15.2929 24.2929C15.4804 24.1054 15.7348 24 16 24H18V22C18 21.7348 18.1054 21.4804 18.2929 21.2929C18.4804 21.1054 18.7348 21 19 21Z" fill="white"/>
<defs>
<linearGradient id="paint0_linear_74_877" x1="0" y1="0" x2="47.156" y2="52.9539" gradientUnits="userSpaceOnUse">
<stop stop-color="#14429D"/>
<stop offset="1" stop-color="#07255E"/>
</linearGradient>
</defs>
</svg>
