<svg width="108" height="108" viewBox="0 0 108 108" fill="none" xmlns="http://www.w3.org/2000/svg">
<g filter="url(#filter0_d_1378_468)">
<path fill-rule="evenodd" clip-rule="evenodd" d="M47.7176 47.7147V55.7004C47.7176 56.6472 46.9501 57.4147 46.0033 57.4147C45.0566 57.4147 44.2891 56.6472 44.2891 55.7004V47.2004C44.2891 46.4275 44.5961 45.6862 45.1426 45.1397C45.6892 44.5932 46.4304 44.2861 47.2034 44.2861H60.8033C61.5763 44.2861 62.3175 44.5932 62.8641 45.1397C63.4106 45.6862 63.7176 46.4275 63.7176 47.2004V60.8004C63.7176 61.5733 63.4106 62.3146 62.8641 62.8611C62.3175 63.4077 61.5763 63.7147 60.8033 63.7147H52.3033C51.3566 63.7147 50.5891 62.9472 50.5891 62.0004C50.5891 61.0536 51.3566 60.2861 52.3033 60.2861H60.2891V47.7147H47.7176Z" fill="white"/>
<path fill-rule="evenodd" clip-rule="evenodd" d="M44.0033 32.2861C44.9501 32.2861 45.7176 33.0536 45.7176 34.0004V36.2861H52.2891V34.0004C52.2891 33.0536 53.0566 32.2861 54.0033 32.2861C54.9501 32.2861 55.7176 33.0536 55.7176 34.0004V36.2861H62.2891V34.0004C62.2891 33.0536 63.0566 32.2861 64.0034 32.2861C64.9501 32.2861 65.7176 33.0536 65.7176 34.0004V36.2861H68.8034C69.5763 36.2861 70.3175 36.5932 70.8641 37.1397C71.4106 37.6862 71.7176 38.4275 71.7176 39.2004V42.2861H74.0033C74.9501 42.2861 75.7176 43.0536 75.7176 44.0004C75.7176 44.9472 74.9501 45.7147 74.0033 45.7147H71.7176V52.2861H74.0033C74.9501 52.2861 75.7176 53.0536 75.7176 54.0004C75.7176 54.9472 74.9501 55.7147 74.0033 55.7147H71.7176V62.2861H74.0033C74.9501 62.2861 75.7176 63.0536 75.7176 64.0004C75.7176 64.9472 74.9501 65.7147 74.0033 65.7147H71.7176V68.8004C71.7176 69.5733 71.4106 70.3146 70.8641 70.8611C70.3175 71.4077 69.5763 71.7147 68.8034 71.7147H65.7176V74.0004C65.7176 74.9472 64.9501 75.7147 64.0034 75.7147C63.0566 75.7147 62.2891 74.9472 62.2891 74.0004V71.7147H55.7176V74.0004C55.7176 74.9472 54.9501 75.7147 54.0033 75.7147C53.0566 75.7147 52.2891 74.9472 52.2891 74.0004V71.7147H45.7176V74.0004C45.7176 74.9472 44.9501 75.7147 44.0033 75.7147C43.0566 75.7147 42.2891 74.9472 42.2891 74.0004V71.7147H39.2033C38.4304 71.7147 37.6892 71.4077 37.1426 70.8611C36.5961 70.3146 36.2891 69.5733 36.2891 68.8004V65.7147H34.0033C33.0566 65.7147 32.2891 64.9472 32.2891 64.0004C32.2891 63.0536 33.0566 62.2861 34.0033 62.2861H36.2891V55.7147H34.0033C33.0566 55.7147 32.2891 54.9472 32.2891 54.0004C32.2891 53.0536 33.0566 52.2861 34.0033 52.2861H36.2891V45.7147H34.0033C33.0566 45.7147 32.2891 44.9472 32.2891 44.0004C32.2891 43.0536 33.0566 42.2861 34.0033 42.2861H36.2891V39.2004C36.2891 38.4275 36.5961 37.6862 37.1426 37.1397C37.6892 36.5932 38.4304 36.2861 39.2033 36.2861H42.2891V34.0004C42.2891 33.0536 43.0566 32.2861 44.0033 32.2861ZM39.7176 39.7147V68.2861H68.2891V39.7147H39.7176Z" fill="white"/>
<path d="M44.7051 42.6542C44.7051 43.7903 43.7841 44.7113 42.6479 44.7113C41.5118 44.7113 40.5908 43.7903 40.5908 42.6542C40.5908 41.518 41.5118 40.597 42.6479 40.597C43.7841 40.597 44.7051 41.518 44.7051 42.6542Z" fill="white"/>
<path d="M44.7051 65.4017C44.7051 66.5378 43.7841 67.4589 42.6479 67.4589C41.5118 67.4589 40.5908 66.5378 40.5908 65.4017C40.5908 64.2656 41.5118 63.3446 42.6479 63.3446C43.7841 63.3446 44.7051 64.2656 44.7051 65.4017Z" fill="white"/>
<path d="M48.6037 61.5975C48.6037 62.7336 47.6827 63.6546 46.5465 63.6546C45.4104 63.6546 44.4894 62.7336 44.4894 61.5975C44.4894 60.4613 45.4104 59.5403 46.5465 59.5403C47.6827 59.5403 48.6037 60.4613 48.6037 61.5975Z" fill="white"/>
<path d="M67.4464 42.6542C67.4464 43.7903 66.5253 44.7113 65.3892 44.7113C64.2531 44.7113 63.3321 43.7903 63.3321 42.6542C63.3321 41.518 64.2531 40.597 65.3892 40.597C66.5253 40.597 67.4464 41.518 67.4464 42.6542Z" fill="white"/>
<path d="M67.4464 65.4017C67.4464 66.5378 66.5253 67.4589 65.3892 67.4589C64.2531 67.4589 63.3321 66.5378 63.3321 65.4017C63.3321 64.2656 64.2531 63.3446 65.3892 63.3446C66.5253 63.3446 67.4464 64.2656 67.4464 65.4017Z" fill="white"/>
</g>
<defs>
<filter id="filter0_d_1378_468" x="26" y="30" width="56" height="56" filterUnits="userSpaceOnUse" color-interpolation-filters="sRGB">
<feFlood flood-opacity="0" result="BackgroundImageFix"/>
<feColorMatrix in="SourceAlpha" type="matrix" values="0 0 0 0 0 0 0 0 0 0 0 0 0 0 0 0 0 0 127 0" result="hardAlpha"/>
<feOffset dy="4"/>
<feGaussianBlur stdDeviation="2"/>
<feColorMatrix type="matrix" values="0 0 0 0 0.0287106 0 0 0 0 0.143616 0 0 0 0 0.366667 0 0 0 1 0"/>
<feBlend mode="normal" in2="BackgroundImageFix" result="effect1_dropShadow_1378_468"/>
<feBlend mode="normal" in="SourceGraphic" in2="effect1_dropShadow_1378_468" result="shape"/>
</filter>
</defs>
</svg>
