<svg width="200" height="202" viewBox="0 0 200 202" fill="none" xmlns="http://www.w3.org/2000/svg">
<circle cx="94" cy="94.513" r="70" fill="#14389D"/>
<circle cx="12" cy="12.513" r="12" fill="#14389D"/>
<circle cx="129" cy="189.513" r="12" fill="#14389D"/>
<circle cx="186" cy="55.513" r="7" fill="#14389D"/>
<circle cx="24" cy="163.513" r="7" fill="#14389D"/>
<circle cx="177" cy="109.513" r="2" fill="#14389D"/>
<circle cx="113.5" cy="9.013" r="3.5" fill="#14389D"/>
<circle cx="189.5" cy="156.013" r="3.5" fill="#14389D"/>
<circle cx="11.5" cy="91.013" r="3.5" fill="#14389D"/>
<path d="M93.5 96.513C91.2457 96.513 89.0837 97.4612 87.4896 99.149C85.8955 100.837 85 103.126 85 105.513C85 107.9 85.8955 110.189 87.4896 111.877C89.0837 113.565 91.2457 114.513 93.5 114.513C95.7543 114.513 97.9163 113.565 99.5104 111.877C101.104 110.189 102 107.9 102 105.513C102 103.126 101.104 100.837 99.5104 99.149C97.9163 97.4612 95.7543 96.513 93.5 96.513ZM89.8571 105.513C89.8571 104.49 90.2409 103.509 90.9241 102.786C91.6073 102.062 92.5339 101.656 93.5 101.656C94.4661 101.656 95.3927 102.062 96.0759 102.786C96.7591 103.509 97.1429 104.49 97.1429 105.513C97.1429 106.536 96.7591 107.517 96.0759 108.24C95.3927 108.964 94.4661 109.37 93.5 109.37C92.5339 109.37 91.6073 108.964 90.9241 108.24C90.2409 107.517 89.8571 106.536 89.8571 105.513Z" fill="white"/>
<path d="M106.92 79.373L99.1999 68.513L70.8123 91.2662L69.2386 91.2491V91.2735H68V120.513H119V91.2735H116.664L112.015 77.6308L106.92 79.373ZM111.532 91.2735H87.1784L105.317 85.0699L109.014 83.8832L111.532 91.2735ZM102.121 81.0153L83.3971 87.4188L98.226 75.5329L102.121 81.0153ZM72.8571 111.178V100.603C73.8824 100.24 74.8137 99.6516 75.5827 98.8805C76.3518 98.1093 76.939 97.1752 77.3014 96.1468H109.699C110.061 97.1757 110.648 98.1102 111.417 98.8818C112.186 99.6534 113.117 100.242 114.143 100.606V111.181C113.117 111.544 112.186 112.133 111.417 112.905C110.648 113.676 110.061 114.611 109.699 115.64H77.3063C76.9424 114.611 76.3542 113.676 75.5845 112.904C74.8148 112.132 73.883 111.543 72.8571 111.178Z" fill="white"/>
</svg>
