<svg width="14" height="14" viewBox="0 0 14 14" fill="none" xmlns="http://www.w3.org/2000/svg">
<path d="M7.2797 0.766293C7.2067 0.611306 7.05606 0.513184 6.89111 0.513184C6.72617 0.513184 6.57553 0.611306 6.50253 0.766293L4.72857 4.53269L0.762184 5.13622C0.598945 5.16106 0.463321 5.28086 0.412341 5.44523C0.361361 5.60961 0.403867 5.79006 0.521986 5.91071L3.39217 8.84227L2.71443 12.9821C2.68654 13.1525 2.75337 13.3247 2.88682 13.4263C3.02026 13.5278 3.19718 13.5412 3.34318 13.4608L6.89111 11.5062L10.439 13.4608C10.585 13.5412 10.762 13.5278 10.8954 13.4263C11.0289 13.3247 11.0957 13.1525 11.0678 12.9821L10.3901 8.84227L13.2602 5.91071C13.3784 5.79006 13.4209 5.60961 13.3699 5.44523C13.3189 5.28086 13.1833 5.16106 13.02 5.13622L9.05366 4.53269L7.2797 0.766293Z" fill="white"/>
</svg>
