<svg width="35" height="34" viewBox="0 0 35 34" fill="none" xmlns="http://www.w3.org/2000/svg">
<path fill-rule="evenodd" clip-rule="evenodd" d="M13.0477 12.5476V18.2041C13.0477 18.8748 12.5041 19.4184 11.8334 19.4184C11.1628 19.4184 10.6191 18.8748 10.6191 18.2041V12.1833C10.6191 11.6358 10.8366 11.1108 11.2238 10.7236C11.6109 10.3365 12.1359 10.119 12.6834 10.119H22.3168C22.8642 10.119 23.3893 10.3365 23.7764 10.7236C24.1636 11.1108 24.381 11.6358 24.381 12.1833V21.8166C24.381 22.3641 24.1636 22.8892 23.7764 23.2763C23.3893 23.6634 22.8642 23.8809 22.3168 23.8809H16.2959C15.6253 23.8809 15.0816 23.3373 15.0816 22.6666C15.0816 21.996 15.6253 21.4523 16.2959 21.4523H21.9525V12.5476H13.0477Z" fill="white"/>
<path fill-rule="evenodd" clip-rule="evenodd" d="M10.4168 1.61902C11.0874 1.61902 11.631 2.16267 11.631 2.8333V4.45235H16.2858V2.8333C16.2858 2.16267 16.8295 1.61902 17.5001 1.61902C18.1707 1.61902 18.7144 2.16267 18.7144 2.8333V4.45235H23.3691V2.8333C23.3691 2.16267 23.9128 1.61902 24.5834 1.61902C25.2541 1.61902 25.7977 2.16267 25.7977 2.8333V4.45235H27.9834C28.5309 4.45235 29.056 4.66984 29.4431 5.05697C29.8302 5.4441 30.0477 5.96916 30.0477 6.51664V8.70235H31.6667C32.3374 8.70235 32.881 9.246 32.881 9.91664C32.881 10.5873 32.3374 11.1309 31.6667 11.1309H30.0477V15.7857H31.6667C32.3374 15.7857 32.881 16.3293 32.881 17C32.881 17.6706 32.3374 18.2143 31.6667 18.2143H30.0477V22.869H31.6667C32.3374 22.869 32.881 23.4127 32.881 24.0833C32.881 24.7539 32.3374 25.2976 31.6667 25.2976H30.0477V27.4833C30.0477 28.0308 29.8302 28.5558 29.4431 28.943C29.056 29.3301 28.5309 29.5476 27.9834 29.5476H25.7977V31.1666C25.7977 31.8373 25.2541 32.3809 24.5834 32.3809C23.9128 32.3809 23.3691 31.8373 23.3691 31.1666V29.5476H18.7144V31.1666C18.7144 31.8373 18.1707 32.3809 17.5001 32.3809C16.8295 32.3809 16.2858 31.8373 16.2858 31.1666V29.5476H11.631V31.1666C11.631 31.8373 11.0874 32.3809 10.4168 32.3809C9.74613 32.3809 9.20247 31.8373 9.20247 31.1666V29.5476H7.01676C6.46928 29.5476 5.94422 29.3301 5.55709 28.943C5.16996 28.5558 4.95247 28.0308 4.95247 27.4833V25.2976H3.33343C2.66279 25.2976 2.11914 24.7539 2.11914 24.0833C2.11914 23.4127 2.66279 22.869 3.33343 22.869H4.95247V18.2143H3.33343C2.66279 18.2143 2.11914 17.6706 2.11914 17C2.11914 16.3293 2.66279 15.7857 3.33343 15.7857H4.95247V11.1309H3.33343C2.66279 11.1309 2.11914 10.5873 2.11914 9.91664C2.11914 9.246 2.66279 8.70235 3.33343 8.70235H4.95247V6.51664C4.95247 5.96915 5.16996 5.44409 5.55709 5.05697C5.94422 4.66984 6.46928 4.45235 7.01676 4.45235H9.20247V2.8333C9.20247 2.16267 9.74613 1.61902 10.4168 1.61902ZM7.38104 6.88092V27.119H27.6191V6.88092H7.38104Z" fill="white"/>
<path d="M10.9138 8.96303C10.9138 9.76779 10.2614 10.4202 9.45668 10.4202C8.65192 10.4202 7.99954 9.76779 7.99954 8.96303C7.99954 8.15828 8.65192 7.50589 9.45668 7.50589C10.2614 7.50589 10.9138 8.15828 10.9138 8.96303Z" fill="white"/>
<path d="M10.9138 25.0759C10.9138 25.8806 10.2614 26.533 9.45668 26.533C8.65192 26.533 7.99954 25.8806 7.99954 25.0759C7.99954 24.2711 8.65192 23.6187 9.45668 23.6187C10.2614 23.6187 10.9138 24.2711 10.9138 25.0759Z" fill="white"/>
<path d="M13.6753 22.3812C13.6753 23.186 13.0229 23.8384 12.2182 23.8384C11.4134 23.8384 10.761 23.186 10.761 22.3812C10.761 21.5765 11.4134 20.9241 12.2182 20.9241C13.0229 20.9241 13.6753 21.5765 13.6753 22.3812Z" fill="white"/>
<path d="M27.0222 8.96303C27.0222 9.76779 26.3698 10.4202 25.5651 10.4202C24.7603 10.4202 24.1079 9.76779 24.1079 8.96303C24.1079 8.15828 24.7603 7.50589 25.5651 7.50589C26.3698 7.50589 27.0222 8.15828 27.0222 8.96303Z" fill="white"/>
<path d="M27.0222 25.0759C27.0222 25.8806 26.3698 26.533 25.5651 26.533C24.7603 26.533 24.1079 25.8806 24.1079 25.0759C24.1079 24.2711 24.7603 23.6187 25.5651 23.6187C26.3698 23.6187 27.0222 24.2711 27.0222 25.0759Z" fill="white"/>
</svg>
