<svg width="20" height="20" viewBox="0 0 20 20" fill="none" xmlns="http://www.w3.org/2000/svg">
<path fill-rule="evenodd" clip-rule="evenodd" d="M2.9165 8.59813C2.9165 4.76491 6.11974 1.66666 9.99437 1.66666C13.8799 1.66666 17.0832 4.76491 17.0832 8.59813C17.0832 10.5297 16.3807 12.323 15.2244 13.843C13.9488 15.5196 12.3766 16.9804 10.607 18.127C10.2019 18.392 9.8364 18.412 9.39188 18.127C7.61212 16.9804 6.03991 15.5196 4.77525 13.843C3.61816 12.323 2.9165 10.5297 2.9165 8.59813ZM7.6617 8.81396C7.6617 10.0981 8.70955 11.1081 9.99438 11.1081C11.28 11.1081 12.338 10.0981 12.338 8.81396C12.338 7.53983 11.28 6.48069 9.99438 6.48069C8.70955 6.48069 7.6617 7.53983 7.6617 8.81396Z" fill="white"/>
</svg>
