<svg width="200" height="201" viewBox="0 0 200 201" fill="none" xmlns="http://www.w3.org/2000/svg">
<circle cx="94" cy="94" r="70" fill="#14389D"/>
<circle cx="12" cy="12" r="12" fill="#14389D"/>
<circle cx="129" cy="189" r="12" fill="#14389D"/>
<circle cx="186" cy="55" r="7" fill="#14389D"/>
<circle cx="24" cy="163" r="7" fill="#14389D"/>
<circle cx="177" cy="109" r="2" fill="#14389D"/>
<circle cx="113.5" cy="8.5" r="3.5" fill="#14389D"/>
<circle cx="189.5" cy="155.5" r="3.5" fill="#14389D"/>
<circle cx="11.5" cy="90.5" r="3.5" fill="#14389D"/>
<path d="M94.0001 67.3333C82.2374 67.3333 72.6667 76.904 72.6667 88.6533C72.5894 105.84 93.1894 120.091 94.0001 120.667C94.0001 120.667 115.411 105.84 115.333 88.6666C115.333 76.904 105.763 67.3333 94.0001 67.3333ZM94.0001 99.3333C88.1067 99.3333 83.3334 94.56 83.3334 88.6666C83.3334 82.7733 88.1067 78 94.0001 78C99.8934 78 104.667 82.7733 104.667 88.6666C104.667 94.56 99.8934 99.3333 94.0001 99.3333Z" fill="white"/>
</svg>
