<svg width="20" height="20" viewBox="0 0 20 20" fill="none" xmlns="http://www.w3.org/2000/svg">
<path fill-rule="evenodd" clip-rule="evenodd" d="M8.33317 3.33334C5.57175 3.33334 3.33317 5.57191 3.33317 8.33334C3.33317 11.0948 5.57175 13.3333 8.33317 13.3333C11.0946 13.3333 13.3332 11.0948 13.3332 8.33334C13.3332 5.57191 11.0946 3.33334 8.33317 3.33334ZM1.6665 8.33334C1.6665 4.65144 4.65127 1.66667 8.33317 1.66667C12.0151 1.66667 14.9998 4.65144 14.9998 8.33334C14.9998 9.87393 14.4773 11.2925 13.5997 12.4214L18.0891 16.9107C18.4145 17.2362 18.4145 17.7638 18.0891 18.0893C17.7637 18.4147 17.236 18.4147 16.9106 18.0893L12.4212 13.5999C11.2923 14.4774 9.87376 15 8.33317 15C4.65127 15 1.6665 12.0152 1.6665 8.33334Z" fill="white"/>
</svg>
